{"asset":{"version":"2.0","generator":"babylon.js glTF exporter for 3dsmax 2021 v20210811.2"},"scene":0,"scenes":[{"nodes":[0]}],"nodes":[{"children":[1,2,3],"name":"armchair"},{"mesh":0,"translation":[0.00155899045,0.6905245,0.233039856],"name":"stitching"},{"mesh":1,"translation":[0.00155899045,0.6905245,0.233039856],"name":"legs"},{"mesh":2,"translation":[0.00155899045,0.6905245,0.233039856],"name":"seat"}],"meshes":[{"primitives":[{"attributes":{"POSITION":1,"NORMAL":2},"indices":0,"material":0}],"name":"stitching"},{"primitives":[{"attributes":{"POSITION":4,"NORMAL":5,"TEXCOORD_0":6,"TEXCOORD_1":7},"indices":3,"material":1}],"name":"legs"},{"primitives":[{"attributes":{"POSITION":9,"NORMAL":10,"TEXCOORD_0":11,"TEXCOORD_1":12},"indices":8,"material":2},{"attributes":{"POSITION":14,"NORMAL":15,"TEXCOORD_0":16,"TEXCOORD_1":17},"indices":13,"material":3}],"name":"seat"}],"accessors":[{"bufferView":0,"componentType":5123,"count":33300,"type":"SCALAR","name":"accessorIndices"},{"bufferView":1,"componentType":5126,"count":6660,"max":[0.382083774,0.309794158,0.049580846],"min":[-0.383235425,-0.3236534,-0.646506548],"type":"VEC3","name":"accessorPositions"},{"bufferView":1,"byteOffset":79920,"componentType":5126,"count":6660,"type":"VEC3","name":"accessorNormals"},{"bufferView":0,"byteOffset":66600,"componentType":5123,"count":5760,"type":"SCALAR","name":"accessorIndices"},{"bufferView":1,"byteOffset":159840,"componentType":5126,"count":1187,"max":[0.277216047,-0.335151434,0.09993255],"min":[-0.27879408,-0.686859369,-0.4562126],"type":"VEC3","name":"accessorPositions"},{"bufferView":1,"byteOffset":174084,"componentType":5126,"count":1187,"type":"VEC3","name":"accessorNormals"},{"bufferView":2,"componentType":5126,"count":1187,"type":"VEC2","name":"accessorUVs"},{"bufferView":2,"byteOffset":9496,"componentType":5126,"count":1187,"type":"VEC2","name":"accessorUV2s"},{"bufferView":0,"byteOffset":78120,"componentType":5123,"count":39930,"type":"SCALAR","name":"accessorIndices"},{"bufferView":1,"byteOffset":188328,"componentType":5126,"count":7031,"max":[0.3881374,0.3144217,0.07126775],"min":[-0.389351279,-0.3409363,-0.6584936],"type":"VEC3","name":"accessorPositions"},{"bufferView":1,"byteOffset":272700,"componentType":5126,"count":7031,"type":"VEC3","name":"accessorNormals"},{"bufferView":2,"byteOffset":18992,"componentType":5126,"count":7031,"type":"VEC2","name":"accessorUVs"},{"bufferView":2,"byteOffset":75240,"componentType":5126,"count":7031,"type":"VEC2","name":"accessorUV2s"},{"bufferView":0,"byteOffset":157980,"componentType":5123,"count":84,"type":"SCALAR","name":"accessorIndices"},{"bufferView":1,"byteOffset":357072,"componentType":5126,"count":3914,"max":[0.3881374,0.3144217,0.06982181],"min":[-0.379142016,-0.340702653,-0.657928467],"type":"VEC3","name":"accessorPositions"},{"bufferView":1,"byteOffset":404040,"componentType":5126,"count":3914,"type":"VEC3","name":"accessorNormals"},{"bufferView":2,"byteOffset":131488,"componentType":5126,"count":3914,"type":"VEC2","name":"accessorUVs"},{"bufferView":2,"byteOffset":162800,"componentType":5126,"count":3914,"type":"VEC2","name":"accessorUV2s"}],"bufferViews":[{"buffer":0,"byteLength":158148,"name":"bufferViewScalar"},{"buffer":0,"byteOffset":158148,"byteLength":451008,"byteStride":12,"name":"bufferViewFloatVec3"},{"buffer":0,"byteOffset":609156,"byteLength":194112,"byteStride":8,"name":"bufferViewFloatVec2"}],"buffers":[{"uri":"model.bin","byteLength":803268}],"materials":[{"pbrMetallicRoughness":{"baseColorFactor":[0.0156862754,0.0156862754,0.0156862754,1.0],"metallicFactor":0.0,"roughnessFactor":0.6},"name":"stitching","extras":{"babylonSeparateCullingPass":false}},{"pbrMetallicRoughness":{"roughnessFactor":0.2},"normalTexture":{"index":0,"scale":0.3},"occlusionTexture":{"index":1,"texCoord":1},"doubleSided":true,"name":"legs","extras":{"babylonSeparateCullingPass":false}},{"pbrMetallicRoughness":{"baseColorFactor":[0.0156862754,0.0156862754,0.0156862754,1.0],"metallicFactor":0.0,"metallicRoughnessTexture":{"index":3}},"normalTexture":{"index":2,"scale":0.3},"occlusionTexture":{"index":1,"texCoord":1},"name":"leather","extras":{"babylonSeparateCullingPass":false}},{"pbrMetallicRoughness":{"baseColorTexture":{"index":5},"metallicFactor":0.0,"metallicRoughnessTexture":{"index":6}},"normalTexture":{"index":4,"scale":0.3},"name":"zip","extras":{"babylonSeparateCullingPass":false}}],"textures":[{"sampler":0,"source":0,"name":"legs_n.jpg"},{"sampler":0,"source":1,"name":"ao.jpg"},{"sampler":0,"source":2,"name":"leather_n.jpg"},{"sampler":0,"source":3,"name":"leather_r0.jpg"},{"sampler":0,"source":4,"name":"zip_n.jpg"},{"sampler":0,"source":5,"name":"zip_d.jpg"},{"sampler":0,"source":6,"name":"zip_r0.jpg"}],"images":[{"uri":"legs_n.jpg"},{"uri":"ao.jpg"},{"uri":"leather_n.jpg"},{"uri":"leather_r0.jpg"},{"uri":"zip_n.jpg"},{"uri":"zip_d.jpg"},{"uri":"zip_r0.jpg"}],"samplers":[{"magFilter":9729,"minFilter":9987}]}